<svg aria-hidden="true" style="position: absolute; width: 0; height: 0; overflow: hidden;" version="1.1" xmlns="http://www.w3.org/2000/svg" xmlns:xlink="http://www.w3.org/1999/xlink">
<defs>
<symbol id="icon-planet" viewBox="0 0 24 24">
<path d="M12 3.25c4.833 0 8.75 3.918 8.75 8.75s-3.918 8.75-8.75 8.75c-4.832 0-8.75-3.918-8.75-8.75s3.918-8.75 8.75-8.75zM6.534 16.085c-0.4 0.106-0.639 0.517-0.533 0.917s0.517 0.639 0.917 0.533c1.929-0.511 4.214-1.386 6.568-2.559 2.344-1.169 4.41-2.461 5.977-3.69 0.326-0.256 0.383-0.727 0.127-1.053s-0.727-0.383-1.053-0.127c-1.473 1.155-3.45 2.396-5.72 3.528-2.28 1.137-4.469 1.971-6.282 2.451z"></path>
<path d="M20.336 6.755c-0.644-0.040-1.55 0.062-2.665 0.323l-0.342-1.46c1.182-0.277 2.249-0.413 3.101-0.36 0.791 0.049 1.689 0.285 2.079 1.067 0.364 0.731 0.078 1.528-0.303 2.151-0.404 0.662-1.057 1.37-1.869 2.085l-0.991-1.126c0.76-0.669 1.287-1.263 1.58-1.741 0.316-0.518 0.241-0.698 0.24-0.7-0.003-0.005-0.125-0.195-0.83-0.239z"></path>
<path d="M5.837 17.791c-1.060 0.219-2.019 0.313-2.79 0.238-0.726-0.071-1.536-0.322-1.9-1.053-0.389-0.781-0.039-1.637 0.395-2.298 0.468-0.711 1.215-1.479 2.144-2.254l0.961 1.151c-0.876 0.731-1.499 1.391-1.852 1.928-0.387 0.587-0.309 0.798-0.306 0.803 0.001 0.002 0.1 0.17 0.704 0.229 0.558 0.055 1.35-0.009 2.341-0.214l0.303 1.469z"></path>
</symbol>
</defs>
</svg>
